<svg width="60" height="60" viewBox="0 0 60 60" fill="none" xmlns="http://www.w3.org/2000/svg">
<rect width="60" height="60" rx="30" fill="url(#paint0_linear_1379_3786)"/>
<path d="M23.1435 20.332H29.7074C30.6473 18.2254 32.3003 16.5219 32.3141 16.4941C32.5778 16.248 32.6481 15.8789 32.5074 15.5449C32.3669 15.2109 32.0505 15 31.6989 15C30.1169 15 29.2555 15.5625 28.57 16.0195C27.9548 16.4414 27.4802 16.7578 26.4255 16.7578C25.3708 16.7578 24.8962 16.4414 24.2809 16.0195C23.5954 15.5625 22.7341 15 21.152 15C20.8005 15 20.4841 15.2109 20.3434 15.5449C20.2028 15.8789 20.2731 16.248 20.5368 16.4941C20.5507 16.5219 22.2036 18.2254 23.1435 20.332ZM32.6364 42.3633V44.1211C32.6364 44.6065 33.0299 45 33.5153 45H44.1208C44.6062 45 44.9997 44.6065 44.9997 44.1211V42.3633C44.9997 41.8779 44.6062 41.4844 44.1208 41.4844H33.5153C33.0299 41.4844 32.6364 41.8779 32.6364 42.3633ZM44.9997 38.8477V37.0898C44.9997 36.6045 44.6062 36.2109 44.1208 36.2109H33.5153C33.0299 36.2109 32.6364 36.6045 32.6364 37.0898V38.8477C32.6364 39.333 33.0299 39.7266 33.5153 39.7266H44.1208C44.6062 39.7266 44.9997 39.333 44.9997 38.8477Z" fill="white"/>
<path d="M32.5254 29.2148C30.8027 27.5273 29.3965 26.0977 29.1152 23.8477H29.9414C30.4336 23.8477 30.8203 23.4609 30.8203 22.9688C30.8203 22.4766 30.4336 22.0898 29.9414 22.0898H22.9102C22.418 22.0898 22.0312 22.4766 22.0312 22.9688C22.0312 23.4609 22.418 23.8477 22.9102 23.8477H23.7363C23.4551 26.0977 22.0488 27.5273 20.3262 29.2148C17.8301 31.6582 15 34.4355 15 40.7812C15.0352 43.1016 17.0215 45 19.3945 45H30.982C30.8836 44.724 30.8203 44.4305 30.8203 44.1211V37.0898C30.8203 35.6361 32.0033 34.4531 33.457 34.4531H36.6053C35.5418 32.1738 33.9645 30.627 32.5254 29.2148ZM26.4258 34.4531C27.8797 34.4531 29.0625 35.6359 29.0625 37.0898C29.0625 38.2342 28.3255 39.2006 27.3047 39.5647V40.6055C27.3047 41.0913 26.9116 41.4844 26.4258 41.4844C25.94 41.4844 25.5469 41.0913 25.5469 40.6055V39.5647C24.5261 39.2007 23.7891 38.2342 23.7891 37.0898C23.7891 36.604 24.1822 36.2109 24.668 36.2109C25.1538 36.2109 25.5469 36.604 25.5469 37.0898C25.5469 37.5748 25.9409 37.9688 26.4258 37.9688C26.9107 37.9688 27.3047 37.5748 27.3047 37.0898C27.3047 36.6049 26.9107 36.2109 26.4258 36.2109C24.9718 36.2109 23.7891 35.0282 23.7891 33.5742C23.7891 32.4299 24.5261 31.4634 25.5469 31.0994V30.0586C25.5469 29.5728 25.94 29.1797 26.4258 29.1797C26.9116 29.1797 27.3047 29.5728 27.3047 30.0586V31.0994C28.3255 31.4634 29.0625 32.4299 29.0625 33.5742C29.0625 34.06 28.6694 34.4531 28.1836 34.4531C27.6978 34.4531 27.3047 34.06 27.3047 33.5742C27.3047 33.0893 26.9107 32.6953 26.4258 32.6953C25.9409 32.6953 25.5469 33.0893 25.5469 33.5742C25.5469 34.0591 25.9409 34.4531 26.4258 34.4531Z" fill="white"/>
<defs>
<linearGradient id="paint0_linear_1379_3786" x1="2.7895e-07" y1="2.7" x2="60" y2="60" gradientUnits="userSpaceOnUse">
<stop stop-color="#48D6D2"/>
<stop offset="1" stop-color="#6A63FF"/>
</linearGradient>
</defs>
</svg>
