<svg width="60" height="60" viewBox="0 0 60 60" fill="none" xmlns="http://www.w3.org/2000/svg">
<rect width="60" height="60" rx="30" fill="url(#paint0_linear_1379_4691)"/>
<path d="M22.2637 21.074C24.1302 19.4535 26.5082 18.4078 29.1197 18.2145V15C25.7163 15.1954 22.5267 16.5213 19.9872 18.7975L22.2637 21.074ZM18.2144 29.1749C18.3942 26.5697 19.4221 24.1944 21.0236 22.3236L18.746 20.0459C16.4906 22.5899 15.1819 25.777 15 29.1749H18.2144ZM30.8803 15V18.2145C33.4918 18.4078 35.8698 19.4535 37.7363 21.074L40.0128 18.7975C37.4733 16.5213 34.2837 15.1954 30.8803 15ZM30 19.9422C24.4561 19.9422 19.9458 24.4525 19.9458 29.9964C19.9458 35.5403 24.4561 40.0506 30 40.0506C35.5439 40.0506 40.0542 35.5403 40.0542 29.9964C40.0542 24.4525 35.5439 19.9422 30 19.9422ZM23.9558 33.4106H22.1953V26.5822H23.9558V33.4106ZM28.5522 33.745C26.4932 33.745 24.818 32.0698 24.818 30.0108C24.818 27.9518 26.4932 26.2766 28.5522 26.2766C29.3102 26.2766 30.0407 26.5031 30.6644 26.9316L29.6676 28.3826C29.3395 28.1569 28.9505 28.0363 28.5522 28.037C27.4639 28.037 26.5785 28.9225 26.5785 30.0108C26.5785 31.0991 27.4639 31.9845 28.5522 31.9845C28.9528 31.9845 29.3385 31.865 29.6675 31.6389L30.6645 33.09C30.0406 33.5185 29.3102 33.745 28.5522 33.745ZM34.5596 33.745C32.5006 33.745 30.8255 32.0698 30.8255 30.0108C30.8255 27.9518 32.5006 26.2766 34.5596 26.2766C36.6187 26.2766 38.2938 27.9517 38.2938 30.0108C38.2938 32.0698 36.6186 33.745 34.5596 33.745ZM41.7774 30.9353C41.5729 33.5238 40.5308 35.8802 38.9224 37.7327L41.199 40.0092C43.4621 37.4843 44.7857 34.3168 44.9929 30.9353H41.7774ZM38.9764 22.3235C40.5779 24.1944 41.6058 26.5697 41.7856 29.1748H45C44.8181 25.777 43.5094 22.5898 41.254 20.0458L38.9764 22.3235ZM21.0776 37.7327C19.4692 35.8802 18.4271 33.5238 18.2226 30.9353H15.0071C15.2143 34.3168 16.5379 37.4844 18.801 40.0092L21.0776 37.7327Z" fill="white"/>
<path d="M34.5597 31.9846C35.6497 31.9846 36.5334 31.1009 36.5334 30.0108C36.5334 28.9208 35.6497 28.0371 34.5597 28.0371C33.4696 28.0371 32.5859 28.9208 32.5859 30.0108C32.5859 31.1009 33.4696 31.9846 34.5597 31.9846Z" fill="white"/>
<path d="M29.1201 41.7782C26.5378 41.5871 24.1842 40.5622 22.3274 38.9727L20.0498 41.2503C22.5791 43.4926 25.7443 44.7989 29.1201 44.9927L29.1201 41.7782ZM37.6732 38.9727C35.8164 40.5622 33.4627 41.5871 30.8806 41.7782V44.9927C34.2564 44.7989 37.4215 43.4926 39.9509 41.2503L37.6732 38.9727Z" fill="white"/>
<defs>
<linearGradient id="paint0_linear_1379_4691" x1="2.7895e-07" y1="2.7" x2="60" y2="60" gradientUnits="userSpaceOnUse">
<stop stop-color="#48D6D2"/>
<stop offset="1" stop-color="#6A63FF"/>
</linearGradient>
</defs>
</svg>
