<svg width="60" height="60" viewBox="0 0 60 60" fill="none" xmlns="http://www.w3.org/2000/svg">
<rect width="60" height="60" rx="30" fill="url(#paint0_linear_1379_4675)"/>
<path d="M38.7023 30.229C38.6412 30.1475 38.5573 30.086 38.4612 30.0522C38.3651 30.0184 38.2611 30.0139 38.1624 30.0392C38.0637 30.0645 37.9747 30.1185 37.9068 30.1944C37.8388 30.2702 37.7948 30.3646 37.7804 30.4654L37.4946 32.4689C37.4877 32.4946 37.4787 32.5198 37.4678 32.5441C37.9931 31.8466 38.417 31.0783 38.7271 30.262L38.7023 30.229ZM36.9842 32.9108C36.9599 32.9108 36.9357 32.9092 36.9116 32.9062L33.8523 32.4689C33.7171 32.4495 33.5951 32.3772 33.5132 32.2679C33.4313 32.1586 33.3962 32.0212 33.4156 31.886V31.8859L33.7014 29.8824C33.7157 29.7817 33.6998 29.679 33.6557 29.5872C33.6117 29.4955 33.5414 29.4189 33.4539 29.3671C33.3663 29.3152 33.2654 29.2905 33.1638 29.2959C33.0622 29.3014 32.9645 29.3368 32.883 29.3978L31.2638 30.6117C31.2097 30.6523 31.1481 30.6818 31.0826 30.6986C31.017 30.7154 30.9489 30.7191 30.8819 30.7095C30.8149 30.7 30.7505 30.6773 30.6923 30.6428C30.6341 30.6084 30.5833 30.5628 30.5427 30.5087L28.6886 28.0365C28.6066 27.9273 28.5715 27.7899 28.5908 27.6547C28.6101 27.5195 28.6823 27.3975 28.7916 27.3155L30.4104 26.1016C30.4919 26.0404 30.5534 25.9565 30.5872 25.8604C30.621 25.7643 30.6255 25.6603 30.6002 25.5616C30.5749 25.4629 30.5209 25.374 30.445 25.306C30.3692 25.238 30.2748 25.194 30.174 25.1797L28.1705 24.8933C28.0353 24.8741 27.9132 24.8019 27.8312 24.6927C27.7492 24.5834 27.7139 24.4461 27.7332 24.3109L27.7332 24.3103L28.1705 21.2515C28.1897 21.1163 28.2619 20.9943 28.3711 20.9123C28.4804 20.8302 28.6177 20.795 28.7529 20.8142L28.7535 20.8143L30.757 21.1006C30.8577 21.1152 30.9605 21.0995 31.0523 21.0553C31.144 21.0112 31.2205 20.9407 31.272 20.8529C31.3254 20.7657 31.3511 20.6644 31.3456 20.5622C31.34 20.4601 31.3036 20.3621 31.2411 20.2812L30.0282 18.663C29.9876 18.6089 29.9581 18.5473 29.9413 18.4818C29.9245 18.4163 29.9208 18.3481 29.9304 18.2811C29.9399 18.2142 29.9626 18.1498 29.9971 18.0916C30.0315 18.0334 30.0771 17.9825 30.1312 17.942L30.4232 17.7231C29.9501 17.7002 29.476 17.7129 29.0048 17.7612C23.9179 18.342 20.265 22.9367 20.8459 28.0236C21.0021 29.392 21.4613 30.7083 22.19 31.877C22.9187 33.0457 23.8987 34.0373 25.0587 34.7798C25.4807 35.0415 25.8299 35.4053 26.074 35.8377C26.3182 36.2701 26.4494 36.757 26.4554 37.2535V39.3348C26.4554 40.1881 27.1472 40.8799 28.0005 40.8799H32.1208C32.9741 40.8799 33.6659 40.1881 33.6659 39.3348V37.2963C33.6723 36.7881 33.8063 36.2896 34.0556 35.8467C34.3048 35.4037 34.6614 35.0305 35.0925 34.7613C35.9044 34.2346 36.6295 33.5847 37.2417 32.8351C37.1641 32.8827 37.0752 32.9088 36.9842 32.9108ZM30.5757 39.3348H29.5456V37.7897H30.5757V39.3348ZM29.5456 36.7596C29.5453 35.3979 28.7056 34.1773 27.434 33.69C23.7252 32.2398 21.8943 28.0577 23.3445 24.3489C23.906 22.9128 24.9131 21.6946 26.218 20.873L26.7645 21.7444C23.8755 23.5623 23.0072 27.3779 24.825 30.2669C25.5294 31.3862 26.5741 32.2501 27.8058 32.7316C29.4751 33.37 30.577 34.9725 30.5757 36.7596H29.5456ZM28.0005 43.455V43.97C28.0005 44.539 28.4617 45.0001 29.0306 45.0001H31.0907C31.6596 45.0001 32.1208 44.539 32.1208 43.97V43.455H28.0005Z" fill="white"/>
<path d="M24.7809 35.2145C24.4757 35.0167 24.1819 34.802 23.9007 34.5713C23.1232 36.0848 21.266 36.6815 19.7524 35.904C19.2472 35.6445 18.8235 35.2503 18.5283 34.7651C18.233 34.2799 18.0776 33.7224 18.0793 33.1544C18.0817 31.5973 19.2413 30.2847 20.7863 30.0905C20.5973 29.522 20.4607 28.9374 20.3784 28.344L20.2883 28.7725C20.1712 29.3292 19.625 29.6856 19.0683 29.5686C18.935 29.5406 18.8085 29.4864 18.6963 29.4091L17.625 28.6737L16.6867 29.61L17.4242 30.6823C17.747 31.1507 17.6289 31.7922 17.1605 32.115C17.0482 32.1924 16.9216 32.2467 16.7881 32.2748L15.5042 32.5451V33.7689L16.7881 34.0392C17.3448 34.1565 17.7011 34.7028 17.5838 35.2595C17.5557 35.3931 17.5013 35.5198 17.4237 35.6322L16.6867 36.6989L17.625 37.6352L18.6953 36.8977C19.1637 36.5749 19.8052 36.6929 20.128 37.1614C20.2054 37.2737 20.2597 37.4003 20.2878 37.5337L20.5576 38.8198H21.7819L22.0517 37.5358C22.1689 36.9791 22.7152 36.6228 23.2718 36.7399C23.4053 36.768 23.5319 36.8223 23.6442 36.8997L24.7139 37.6352L25.8187 36.5305C25.6334 35.986 25.2671 35.5216 24.7809 35.2145ZM28.0008 41.3949H32.1211V42.425H28.0008V41.3949ZM42.9208 23.8792C42.076 23.7585 41.4892 22.9757 41.6099 22.131C41.6387 21.9301 41.7067 21.7369 41.8101 21.5623C41.9135 21.3877 42.0502 21.2352 42.2126 21.1135L43.4193 20.2081L42.1832 18.56L40.9765 19.4649C40.294 19.9771 39.3255 19.839 38.8133 19.1565C38.5677 18.8291 38.462 18.4177 38.5193 18.0125L38.7325 16.5189L36.6935 16.228L36.4803 17.7215C36.3595 18.5663 35.5767 19.1531 34.732 19.0324C34.5312 19.0036 34.3379 18.9356 34.1634 18.8322C33.9888 18.7288 33.8363 18.5921 33.7146 18.4297L32.8092 17.2209L31.1611 18.457L32.066 19.6637C32.578 20.3463 32.4398 21.3148 31.7572 21.8269C31.5948 21.9487 31.41 22.0374 31.2133 22.0877C31.0167 22.1381 30.812 22.1492 30.611 22.1204L29.1174 21.9072L28.8249 23.9467L30.3185 24.1599C31.1632 24.2808 31.7501 25.0635 31.6293 25.9082C31.6006 26.1091 31.5326 26.3023 31.4292 26.4769C31.3258 26.6514 31.189 26.8039 31.0266 26.9256L29.8204 27.8311L31.0565 29.4792L32.2632 28.5743C32.9458 28.0622 33.9143 28.2004 34.4264 28.883C34.5483 29.0454 34.6369 29.2302 34.6872 29.4269C34.7376 29.6236 34.7487 29.8283 34.7199 30.0292L34.5067 31.5228L36.5503 31.8153L36.7636 30.3218C36.8844 29.477 37.6671 28.8902 38.5118 29.0109C38.7127 29.0397 38.9059 29.1077 39.0805 29.2111C39.2551 29.3145 39.4076 29.4512 39.5293 29.6136L40.4347 30.8198L42.0828 29.5837L41.1748 28.3749C40.6629 27.6922 40.8014 26.7238 41.4841 26.2119C41.8114 25.9665 42.2227 25.8609 42.6277 25.9183L44.1213 26.1315L44.4123 24.0925L42.9208 23.8792ZM36.6204 27.11C34.9137 27.11 33.5302 25.7265 33.5302 24.0198C33.5302 22.3132 34.9137 20.9297 36.6204 20.9297C38.3271 20.9297 39.7106 22.3132 39.7106 24.0198C39.7086 25.7257 38.3262 27.108 36.6204 27.11ZM39.8465 34.1845H43.4518V35.2145H39.8465V34.1845ZM39.0019 37.67L39.6613 36.8786L42.7516 39.4534L42.0923 40.2448L39.0019 37.67ZM36.7564 38.3047H37.7864V41.9099H36.7564V38.3047ZM15 23.8989L19.12 22.8689L19.3696 23.8677L15.2497 24.8977L15 23.8989ZM15.8555 18.6378L16.4539 17.8001L20.0589 20.375L19.4605 21.2127L15.8555 18.6378ZM20.2684 15.2553L21.2662 15.0001L22.3197 19.12L21.3218 19.3752L20.2684 15.2553Z" fill="white"/>
<defs>
<linearGradient id="paint0_linear_1379_4675" x1="2.7895e-07" y1="2.7" x2="60" y2="60" gradientUnits="userSpaceOnUse">
<stop stop-color="#48D6D2"/>
<stop offset="1" stop-color="#6A63FF"/>
</linearGradient>
</defs>
</svg>
