<svg width="60" height="60" viewBox="0 0 60 60" fill="none" xmlns="http://www.w3.org/2000/svg">
<rect width="60" height="60" rx="30" fill="url(#paint0_linear_1379_3794)"/>
<path d="M30.0128 28.9767L35.1842 25.9922L30.0128 23.0064L24.8412 25.9922L30.0128 28.9767ZM36.0626 27.5131L30.8909 30.4977V36.4712L36.0626 33.4853V27.5131ZM29.1346 30.4977L23.9628 27.513V33.4853L29.1346 36.4712V30.4977ZM41.9468 33.0189L44.9786 29.9872L41.9468 26.9553L40.7049 28.1972L41.6189 29.1112H37.819V30.8675H41.6145L40.7049 31.7771L41.9468 33.0189ZM29.1232 18.3477V21.492L30.0128 20.9784L30.8795 21.4788V18.3762L31.777 19.2736L33.0188 18.0317L29.9871 15L26.9552 18.0317L28.1971 19.2736L29.1232 18.3477ZM34.94 23.8232L36.5147 24.7323L40.3624 20.8846C40.8186 21.1354 41.3328 21.2692 41.8678 21.2692H41.8679C42.7045 21.2692 43.4911 20.9434 44.0826 20.3518C45.3038 19.1307 45.3038 17.1436 44.0827 15.9224H44.0826C42.8615 14.7013 40.8744 14.7013 39.6531 15.9224C38.6475 16.9281 38.4708 18.4528 39.1214 19.6418L34.94 23.8232ZM44.0826 39.6327C43.077 38.627 41.5523 38.4504 40.3633 39.101L36.5147 35.2523L34.94 36.1615L39.1214 40.3429C38.4708 41.5319 38.6475 43.0565 39.6532 44.0622C40.2639 44.6727 41.0659 44.978 41.8679 44.978C42.67 44.978 43.472 44.6727 44.0826 44.0622C44.6741 43.4707 45 42.6841 45 41.8474C45 41.0108 44.6741 40.2242 44.0826 39.6327ZM30.8795 41.6069V38.5058L30.0128 39.0062L29.1232 38.4926V41.6265L28.2016 40.705L26.9597 41.9468L29.9915 44.9786L33.0233 41.9468L31.7814 40.705L30.8795 41.6069ZM25.0855 36.1615L23.5108 35.2523L19.6631 39.1001C19.2069 38.8493 18.6926 38.7154 18.1576 38.7154C17.321 38.7154 16.5344 39.0412 15.9428 39.6328C14.7217 40.854 14.7217 42.8411 15.9428 44.0622C16.5344 44.6538 17.321 44.9796 18.1576 44.9796C18.9943 44.9796 19.7808 44.6538 20.3723 44.0622C21.378 43.0566 21.5547 41.532 20.904 40.343L25.0855 36.1615ZM18.1576 21.2678C18.6834 21.2679 19.2008 21.1358 19.6622 20.8836L23.5109 24.7323L25.0855 23.8232L20.905 19.6427C21.1558 19.1865 21.2897 18.6723 21.2897 18.1372C21.2897 17.3006 20.9639 16.514 20.3723 15.9225C19.1512 14.7014 17.1641 14.7013 15.9428 15.9225C14.7216 17.1436 14.7216 19.1307 15.9428 20.352C16.5535 20.9625 17.3555 21.2678 18.1576 21.2678ZM19.2737 31.7815L18.3597 30.8675H22.2064V29.1112H18.3642L19.2737 28.2016L18.0317 26.9597L15 29.9916L18.0317 33.0234L19.2737 31.7815Z" fill="white"/>
<defs>
<linearGradient id="paint0_linear_1379_3794" x1="2.7895e-07" y1="2.7" x2="60" y2="60" gradientUnits="userSpaceOnUse">
<stop stop-color="#48D6D2"/>
<stop offset="1" stop-color="#6A63FF"/>
</linearGradient>
</defs>
</svg>
