<svg width="60" height="60" viewBox="0 0 60 60" fill="none" xmlns="http://www.w3.org/2000/svg">
<rect width="60" height="60" rx="30" fill="url(#paint0_linear_1379_3778)"/>
<path d="M35.491 19.7829C35.491 16.519 23.6543 16.5189 23.6543 19.7829C23.6543 23.0475 35.491 23.0478 35.491 19.7829Z" fill="white"/>
<path d="M38.3396 28.1246C38.1257 27.3558 37.5791 26.6351 36.7399 26.0184V25.4689C37.8553 24.6511 38.4433 23.6707 38.4433 22.6214V19.7829C38.4433 15.4368 28.8822 13.5097 23.4182 16.3154C21.6672 17.2146 20.7029 18.4459 20.7029 19.7829V21.4773C19.5878 22.2949 19 23.2751 19 24.3242V27.1626C19 28.2117 19.5873 29.1918 20.7029 30.01C20.7029 31.8121 20.6117 32.2928 21.1028 33.1515C20.8376 33.6156 20.7029 34.1013 20.7029 34.5992V40.2193C20.7029 41.5562 21.6672 42.7877 23.4182 43.6868C28.8568 46.4795 38.4433 44.5824 38.4433 40.2193V38.0707C40.251 37.1767 41.2812 35.9023 41.2812 34.5424V31.704C41.2812 30.3169 40.2124 29.0212 38.3396 28.1246ZM35.6832 35.1942C37.1047 34.4751 38.4433 33.2841 38.4433 31.7039V29.2362C42.0093 31.2801 40.2573 34.1569 35.6832 35.1942ZM21.7475 33.9863C22.2314 34.4742 22.8735 34.9142 23.6435 35.283C23.9605 36.419 25.001 37.4159 26.514 38.1355C23.2926 37.4605 21.123 35.7747 21.7475 33.9863ZM29.5728 32.7112C27.2535 32.7112 25.0859 32.1947 23.603 31.3678C29.233 33.0041 36.6215 31.0173 36.738 27.2481C39.2946 29.8397 35.1112 32.7112 29.5728 32.7112ZM29.5728 15.9377C33.8729 15.9377 37.5058 17.6986 37.5058 19.7828C37.5058 21.8674 33.8729 23.6286 29.5728 23.6286C25.273 23.6286 21.6405 21.8674 21.6405 19.7828C21.6405 17.6986 25.273 15.9377 29.5728 15.9377ZM20.7048 22.7056C20.8191 26.4589 28.1855 28.4699 33.8402 26.8264C32.3573 27.6534 30.1894 28.1699 27.8699 28.1699C22.3224 28.1699 18.1458 25.2895 20.7048 22.7056Z" fill="white"/>
<defs>
<linearGradient id="paint0_linear_1379_3778" x1="2.7895e-07" y1="2.7" x2="60" y2="60" gradientUnits="userSpaceOnUse">
<stop stop-color="#48D6D2"/>
<stop offset="1" stop-color="#6A63FF"/>
</linearGradient>
</defs>
</svg>
