<svg width="60" height="60" viewBox="0 0 60 60" fill="none" xmlns="http://www.w3.org/2000/svg">
<rect width="60" height="60" rx="30" fill="url(#paint0_linear_1379_4683)"/>
<path d="M30 15C21.7286 15 15 21.7286 15 30C15 38.2714 21.7286 45 30 45C38.2714 45 45 38.2714 45 30C45 21.7286 38.2714 15 30 15ZM30 40.7143C24.0964 40.7143 19.2857 35.9036 19.2857 30C19.2857 24.0964 24.0964 19.2857 30 19.2857C35.9036 19.2857 40.7143 24.0964 40.7143 30C40.7143 35.9036 35.9036 40.7143 30 40.7143Z" fill="white"/>
<path d="M30.0001 21.4287C25.2751 21.4287 21.4287 25.2751 21.4287 30.0001C21.4287 34.7251 25.2751 38.5716 30.0001 38.5716C34.7251 38.5716 38.5716 34.7251 38.5716 30.0001C38.5716 25.2751 34.7251 21.4287 30.0001 21.4287ZM34.543 31.3609L33.3109 32.0359C32.7751 32.3251 32.3359 32.7644 32.0359 33.3109L31.3609 34.543C31.0823 35.0359 30.568 35.3466 30.0001 35.3466C29.4323 35.3466 28.918 35.0359 28.6394 34.543L27.9644 33.3109C27.6644 32.7644 27.2251 32.3251 26.6894 32.0359L25.4573 31.3609C24.9537 31.093 24.643 30.568 24.643 30.0001C24.643 29.4323 24.9537 28.9073 25.4573 28.6394L26.6894 27.9644C27.2251 27.6751 27.6644 27.2359 27.9644 26.6894L28.6394 25.4573C28.918 24.9644 29.4323 24.6537 30.0001 24.6537C30.568 24.6537 31.0823 24.9644 31.3609 25.4573L32.0359 26.6894C32.3359 27.2251 32.7751 27.6751 33.3109 27.9644L34.543 28.6394C35.0466 28.9073 35.3573 29.4323 35.3573 30.0001C35.3573 30.568 35.0466 31.093 34.543 31.3609Z" fill="white"/>
<defs>
<linearGradient id="paint0_linear_1379_4683" x1="2.7895e-07" y1="2.7" x2="60" y2="60" gradientUnits="userSpaceOnUse">
<stop stop-color="#48D6D2"/>
<stop offset="1" stop-color="#6A63FF"/>
</linearGradient>
</defs>
</svg>
